<svg width="101" height="117" viewBox="0 0 101 117" fill="none" xmlns="http://www.w3.org/2000/svg">
<rect width="101" height="117" fill="white"/>
<rect x="0.348503" y="0.610991" width="73" height="93" rx="4.5" transform="matrix(0.965926 0.258819 -0.26892 0.963162 25.1762 7.93231)" fill="white" stroke="black"/>
<g filter="url(#filter0_d_0_1)">
<ellipse cx="37" cy="16.5" rx="37" ry="16.5" transform="matrix(0.965926 0.258819 -0.26892 0.963162 28.8744 -6)" fill="white"/>
<path d="M95.4327 28.9154C94.8637 30.9535 93.3846 32.6827 91.1221 34.0529C88.8564 35.425 85.8301 36.42 82.2364 36.9849C75.0504 38.1146 65.6912 37.5097 55.8737 34.8791C46.0562 32.2485 37.6856 28.1027 32.0869 23.5474C29.287 21.2693 27.1989 18.9039 25.9615 16.5932C24.7258 14.2856 24.3511 12.0597 24.9201 10.0216C25.4892 7.98348 26.9682 6.25429 29.2308 4.88408C31.4964 3.51199 34.5227 2.51702 38.1164 1.95208C45.3024 0.822414 54.6616 1.42729 64.4791 4.05789C74.2967 6.68848 82.6672 10.8343 88.266 15.3896C91.0658 17.6677 93.1539 20.0331 94.3913 22.3438C95.627 24.6514 96.0018 26.8773 95.4327 28.9154Z" stroke="black"/>
</g>
<ellipse cx="30.5" cy="11.5" rx="30.5" ry="11.5" transform="matrix(0.965926 0.258819 -0.26892 0.963162 33.1852 0)" fill="#5CBCB6"/>
<path d="M22 22L52.5 45.5L92.3294 40.8447" stroke="black"/>
<line x1="41.5257" y1="36.8419" x2="43.5257" y2="30.8419" stroke="black"/>
<path d="M35 31.9498L37 27" stroke="black"/>
<line x1="28.5528" y1="26.7764" x2="30.5528" y2="22.7764" stroke="black"/>
<line x1="83.5099" y1="41.8507" x2="84.5099" y2="36.901" stroke="black"/>
<line x1="47.5257" y1="41.8419" x2="50.5257" y2="32.8419" stroke="black"/>
<line x1="59.5119" y1="44.8915" x2="61.5119" y2="35.8915" stroke="black"/>
<line x1="68.505" y1="43.9293" x2="69.505" y2="36.9293" stroke="black"/>
<line x1="75.5099" y1="42.8507" x2="76.5099" y2="37.901" stroke="black"/>
<rect x="0.348503" y="0.610991" width="69" height="47" transform="matrix(0.965926 0.258819 -0.26892 0.963162 16.0843 48.9323)" fill="white" stroke="#FAFF00"/>
<rect width="66" height="9" transform="matrix(0.965926 0.258819 -0.26892 0.963162 17.4203 51)" fill="#14FF00"/>
<rect width="66.602" height="9" transform="matrix(0.965926 0.258819 -0.26892 0.963162 7.42028 86)" fill="#FF0000"/>
<g filter="url(#filter1_d_0_1)">
<rect width="66" height="26" transform="matrix(0.965926 0.258819 -0.26892 0.963162 14.9919 60)" fill="#D9D9D9"/>
</g>
<path d="M17.6196 69.6528L18.1027 76.7538L18.1933 76.7781L22.2984 70.9065L23.2794 71.1693L18.2906 78.1143L17.3247 77.8555L16.6386 69.3899L17.6196 69.6528ZM22.2109 79.1648L23.8244 73.3858L24.7149 73.6244L23.1014 79.4034L22.2109 79.1648ZM24.5461 72.544C24.3726 72.4975 24.2393 72.3984 24.1465 72.2468C24.0561 72.0959 24.0341 71.9377 24.0803 71.7721C24.1265 71.6066 24.2277 71.4814 24.3839 71.3965C24.5426 71.3123 24.7087 71.2935 24.8823 71.34C25.0558 71.3865 25.1878 71.4852 25.2781 71.6361C25.371 71.7877 25.3943 71.9463 25.3481 72.1118C25.3019 72.2774 25.1994 72.4022 25.0407 72.4864C24.8846 72.5713 24.7197 72.5905 24.5461 72.544ZM28.8663 74.7368L28.6562 75.4892L25.6528 74.6845L25.8629 73.932L28.8663 74.7368ZM27.1248 72.782L28.0153 73.0206L26.4774 78.5287C26.4074 78.7795 26.3913 78.9774 26.4292 79.1224C26.4704 79.2655 26.5429 79.3739 26.6467 79.4475C26.7537 79.5193 26.8726 79.5728 27.0034 79.6078C27.1015 79.6341 27.1834 79.6506 27.2491 79.6575C27.3155 79.6618 27.3686 79.6652 27.4084 79.6678L27.3668 80.514C27.3002 80.5204 27.2096 80.5203 27.0951 80.5139C26.9799 80.51 26.8394 80.4858 26.6733 80.4414C26.4218 80.374 26.1903 80.254 25.979 80.0814C25.7701 79.9095 25.6173 79.692 25.5204 79.4288C25.4261 79.1663 25.4259 78.867 25.5197 78.5309L27.1248 72.782ZM30.2599 81.4671C29.8926 81.3687 29.5786 81.2104 29.3178 80.9922C29.0577 80.7716 28.8763 80.506 28.7738 80.1954C28.6719 79.8824 28.6735 79.5377 28.7786 79.1615C28.871 78.8304 29.0114 78.5795 29.1996 78.4089C29.3885 78.2358 29.6089 78.1196 29.8606 78.0603C30.1124 78.0011 30.3784 77.978 30.6586 77.9911C30.942 78.0023 31.2232 78.0265 31.5022 78.0635C31.867 78.1127 32.1619 78.1553 32.3871 78.1914C32.6154 78.2256 32.788 78.2274 32.9047 78.1966C33.0239 78.1666 33.1035 78.0801 33.1434 77.9371L33.1518 77.907C33.2555 77.5358 33.2341 77.22 33.0878 76.9598C32.944 76.7002 32.6671 76.5154 32.2571 76.4056C31.832 76.2917 31.4728 76.2952 31.1794 76.4161C30.8861 76.537 30.661 76.6896 30.5041 76.874L29.743 76.3466C29.9919 76.0359 30.2695 75.8164 30.5757 75.6881C30.885 75.5581 31.2003 75.4943 31.5213 75.4967C31.8456 75.4973 32.1536 75.5367 32.4454 75.6149C32.6315 75.6648 32.839 75.7447 33.0679 75.8545C33.3 75.9625 33.5103 76.1146 33.6989 76.3107C33.89 76.5075 34.0228 76.7628 34.0974 77.0766C34.172 77.3905 34.1452 77.7769 34.0171 78.2359L32.954 82.0434L32.0635 81.8048L32.282 81.0222L32.2368 81.0101C32.1414 81.1193 32.0033 81.2266 31.8225 81.3318C31.6417 81.437 31.4204 81.5084 31.1584 81.5461C30.8965 81.5837 30.597 81.5574 30.2599 81.4671ZM30.6184 80.7059C30.9706 80.8002 31.2867 80.8108 31.5667 80.7375C31.8492 80.665 32.0825 80.5361 32.2667 80.3509C32.4534 80.1664 32.5804 79.9537 32.6476 79.7129L32.8745 78.9002C32.8242 78.9353 32.7296 78.9544 32.5908 78.9577C32.4552 78.9591 32.3006 78.9514 32.1269 78.9345C31.9564 78.9157 31.7903 78.8955 31.6288 78.8738C31.4704 78.8502 31.3417 78.8319 31.2426 78.8188C31.0028 78.7869 30.7728 78.7779 30.5527 78.7917C30.3357 78.8036 30.1471 78.8596 29.9867 78.9595C29.8296 79.0576 29.7195 79.2195 29.6564 79.4452C29.5703 79.7537 29.6196 80.0177 29.8044 80.237C29.9924 80.4545 30.2637 80.6108 30.6184 80.7059ZM34.5793 82.4789L36.1928 76.6999L37.0531 76.9304L36.801 77.8334L36.8764 77.8536C37.0833 77.5774 37.3451 77.3901 37.6619 77.2917C37.9794 77.1907 38.3268 77.1908 38.7041 77.2919C39.0864 77.3944 39.3805 77.5662 39.5862 77.8073C39.7952 78.0466 39.9283 78.3397 39.9855 78.6867L40.0459 78.7028C40.2776 78.4441 40.5664 78.2668 40.9123 78.1707C41.2588 78.0722 41.6396 78.0785 42.0546 78.1897C42.5728 78.3285 42.9515 78.6039 43.1907 79.0158C43.4306 79.4251 43.4556 79.9696 43.2658 80.6494L42.1859 84.5171L41.2955 84.2785L42.3754 80.4108C42.4944 79.9844 42.4625 79.6483 42.2797 79.4025C42.0969 79.1567 41.847 78.9914 41.5301 78.9064C41.1226 78.7973 40.7726 78.8356 40.4801 79.0214C40.1883 79.2047 39.9902 79.4832 39.8859 79.8569L38.8354 83.6193L37.9298 83.3767L39.0349 79.4187C39.1267 79.0901 39.0936 78.7968 38.9359 78.5389C38.7788 78.2784 38.5317 78.103 38.1946 78.0127C37.9632 77.9507 37.7297 77.9542 37.4942 78.0232C37.2611 78.0928 37.0525 78.2202 36.8683 78.4054C36.6874 78.5888 36.5573 78.8222 36.4782 79.1056L35.4697 82.7175L34.5793 82.4789ZM43.8141 84.9533L45.4276 79.1744L46.318 79.413L44.7045 85.1919L43.8141 84.9533ZM46.1493 78.3325C45.9757 78.286 45.8425 78.187 45.7496 78.0354C45.6593 77.8845 45.6372 77.7262 45.6835 77.5607C45.7297 77.3951 45.8309 77.2699 45.9871 77.1851C46.1457 77.1009 46.3119 77.0821 46.4854 77.1286C46.659 77.1751 46.7909 77.2738 46.8813 77.4247C46.9741 77.5763 46.9975 77.7348 46.9512 77.9004C46.905 78.0659 46.8026 78.1908 46.6439 78.275C46.4877 78.3598 46.3228 78.379 46.1493 78.3325ZM48.1966 82.3911L47.2259 85.8675L46.3355 85.6289L47.949 79.85L48.8093 80.0805L48.5572 80.9834L48.6326 81.0037C48.8504 80.7466 49.1225 80.5661 49.4489 80.4621C49.776 80.3557 50.1584 80.3611 50.5961 80.4784C50.9885 80.5835 51.3095 80.7558 51.5589 80.9952C51.8091 81.2321 51.9708 81.5342 52.044 81.9016C52.1178 82.2664 52.0861 82.6947 51.9489 83.1863L50.9236 86.8583L50.0332 86.6197L51.0416 83.0079C51.1684 82.5539 51.1489 82.1685 50.9832 81.8519C50.8181 81.5327 50.5294 81.3178 50.1168 81.2073C49.8326 81.1311 49.5614 81.1245 49.3032 81.1874C49.0475 81.251 48.8226 81.3835 48.6285 81.5849C48.4344 81.7863 48.2904 82.055 48.1966 82.3911ZM52.7772 87.355L58.1368 81.4637L58.1536 81.4035L54.1692 80.3359L54.4003 79.5081L59.3507 80.8346L59.107 81.7075L53.7582 87.6179L52.7772 87.355ZM59.0547 89.0371L64.4144 83.1458L64.4312 83.0856L60.4468 82.0179L60.6779 81.1902L65.6282 82.5167L65.3845 83.3895L60.0358 89.2999L59.0547 89.0371ZM65.3323 90.7191L70.692 84.8278L70.7088 84.7676L66.7243 83.7L66.9554 82.8723L71.9058 84.1987L71.6621 85.0716L66.3133 90.982L65.3323 90.7191Z" fill="black"/>
<path d="M58.7251 15.2365L59.2082 22.3375L59.2987 22.3617L63.4038 16.4901L64.3848 16.753L59.3961 23.698L58.4302 23.4392L57.7441 14.9736L58.7251 15.2365Z" fill="#1400FF"/>
<rect width="31.5592" height="9.92275" transform="matrix(0.965926 0.258819 -0.26101 0.965336 38.6021 43.4745)" fill="#FBFF37"/>
<path d="M39.3708 53.0943L39.3459 44.8055L40.2968 45.0602L40.211 51.7827L40.2865 51.8029L43.6322 45.954L44.6887 46.2371L44.6331 52.9676L44.7086 52.9879L48.0242 47.1308L48.975 47.3856L44.774 54.5421L43.808 54.2833L43.7665 47.6723L43.7061 47.6561L40.3367 53.3531L39.3708 53.0943ZM49.7143 55.9953C49.1911 55.8551 48.7657 55.6076 48.4381 55.2529C48.113 54.8989 47.9002 54.4685 47.7998 53.9617C47.702 53.4556 47.7339 52.9034 47.8957 52.3051C48.0589 51.7018 48.3107 51.2044 48.6512 50.8131C48.9942 50.4224 49.3956 50.1552 49.8553 50.0115C50.3175 49.8684 50.8102 49.867 51.3334 50.0072C51.8566 50.1474 52.2808 50.3945 52.6059 50.7485C52.9335 51.1032 53.1459 51.5348 53.2431 52.0435C53.3428 52.5528 53.3111 53.1091 53.1479 53.7124C52.9862 54.3107 52.7341 54.804 52.3918 55.1921C52.0519 55.581 51.6509 55.8469 51.1887 55.99C50.729 56.1337 50.2375 56.1355 49.7143 55.9953ZM49.9305 55.1959C50.3279 55.3023 50.6825 55.2882 50.9941 55.1533C51.3057 55.0184 51.568 54.8016 51.781 54.5028C51.994 54.2039 52.1528 53.861 52.2575 53.4738C52.3622 53.0867 52.3981 52.7094 52.3652 52.3421C52.3324 51.9747 52.2155 51.6536 52.0147 51.3787C51.8138 51.1038 51.5147 50.9131 51.1173 50.8066C50.7198 50.7001 50.3649 50.7155 50.0526 50.8529C49.7403 50.9903 49.4773 51.2097 49.2637 51.511C49.05 51.8123 48.8909 52.1566 48.7862 52.5437C48.6815 52.9308 48.6459 53.3068 48.6795 53.6717C48.713 54.0366 48.8305 54.3552 49.032 54.6276C49.2336 54.8999 49.533 55.0894 49.9305 55.1959ZM53.7323 56.9425L55.2984 51.1505L56.1587 51.381L55.9221 52.2558L55.9825 52.272C56.1656 52.0137 56.4197 51.8324 56.7447 51.7281C57.0696 51.6237 57.4057 51.618 57.7528 51.7111C57.8182 51.7286 57.8996 51.7517 57.997 51.7805C58.0944 51.8093 58.1676 51.833 58.2166 51.8515L57.9719 52.7565C57.9437 52.7409 57.8776 52.711 57.7735 52.667C57.6726 52.6211 57.5631 52.5823 57.4449 52.5506C57.1631 52.4751 56.8956 52.4668 56.6423 52.5256C56.3922 52.5826 56.1751 52.697 55.9911 52.8688C55.8103 53.0387 55.6845 53.2544 55.6138 53.5158L54.6228 57.1811L53.7323 56.9425ZM60.6642 50.5177L58.5761 58.2404L57.6857 58.0018L59.7737 50.2791L60.6642 50.5177ZM62.3629 59.3844C61.8799 59.255 61.4865 59.0189 61.1827 58.6759C60.8795 58.3305 60.684 57.9061 60.5962 57.4026C60.5091 56.8967 60.5485 56.3371 60.7144 55.7237C60.8788 55.1153 61.126 54.6154 61.4557 54.2238C61.7855 53.8323 62.1695 53.5645 62.6077 53.4204C63.0459 53.2763 63.509 53.2696 63.997 53.4004C64.3744 53.5015 64.6554 53.6442 64.8403 53.8285C65.0283 54.011 65.1588 54.197 65.2317 54.3863C65.3078 54.5739 65.3649 54.7267 65.4031 54.8448L65.4786 54.865L66.2494 52.0142L67.1399 52.2528L65.0518 59.9755L64.1915 59.745L64.4321 58.8551L64.3265 58.8268C64.2325 58.9148 64.1034 59.0231 63.9392 59.1517C63.7756 59.2777 63.5649 59.3736 63.3071 59.4393C63.0499 59.5025 62.7352 59.4842 62.3629 59.3844ZM62.6998 58.6174C63.0569 58.7131 63.3839 58.7009 63.6808 58.581C63.9783 58.4585 64.236 58.2485 64.454 57.951C64.6727 57.6511 64.8412 57.2824 64.9594 56.845C65.0764 56.4126 65.1158 56.0174 65.0777 55.6594C65.0403 55.2989 64.9228 54.9951 64.7252 54.748C64.5283 54.4985 64.2488 54.3252 63.8865 54.2281C63.5092 54.127 63.1686 54.1395 62.8647 54.2657C62.5641 54.39 62.3063 54.6 62.0915 54.8956C61.8799 55.1894 61.719 55.5399 61.6089 55.9472C61.4974 56.3595 61.459 56.7509 61.4937 57.1214C61.5316 57.4902 61.6482 57.8072 61.8435 58.0725C62.0421 58.336 62.3275 58.5176 62.6998 58.6174Z" fill="black"/>
<defs>
<filter id="filter0_d_0_1" x="20.159" y="0.911278" width="80.0348" height="45.1144" filterUnits="userSpaceOnUse" color-interpolation-filters="sRGB">
<feFlood flood-opacity="0" result="BackgroundImageFix"/>
<feColorMatrix in="SourceAlpha" type="matrix" values="0 0 0 0 0 0 0 0 0 0 0 0 0 0 0 0 0 0 127 0" result="hardAlpha"/>
<feOffset dy="4"/>
<feGaussianBlur stdDeviation="2"/>
<feComposite in2="hardAlpha" operator="out"/>
<feColorMatrix type="matrix" values="0 0 0 0 0 0 0 0 0 0 0 0 0 0 0 0 0 0 0.25 0"/>
<feBlend mode="normal" in2="BackgroundImageFix" result="effect1_dropShadow_0_1"/>
<feBlend mode="normal" in="SourceGraphic" in2="effect1_dropShadow_0_1" result="shape"/>
</filter>
<filter id="filter1_d_0_1" x="4" y="60" width="78.743" height="50.1243" filterUnits="userSpaceOnUse" color-interpolation-filters="sRGB">
<feFlood flood-opacity="0" result="BackgroundImageFix"/>
<feColorMatrix in="SourceAlpha" type="matrix" values="0 0 0 0 0 0 0 0 0 0 0 0 0 0 0 0 0 0 127 0" result="hardAlpha"/>
<feOffset dy="4"/>
<feGaussianBlur stdDeviation="2"/>
<feComposite in2="hardAlpha" operator="out"/>
<feColorMatrix type="matrix" values="0 0 0 0 0 0 0 0 0 0 0 0 0 0 0 0 0 0 0.25 0"/>
<feBlend mode="normal" in2="BackgroundImageFix" result="effect1_dropShadow_0_1"/>
<feBlend mode="normal" in="SourceGraphic" in2="effect1_dropShadow_0_1" result="shape"/>
</filter>
</defs>
</svg>
